<mxfile host="app.diagrams.net" modified="2023-04-24T08:51:31.508Z" agent="Mozilla/5.0 (X11; Ubuntu; Linux x86_64; rv:109.0) Gecko/20100101 Firefox/112.0" version="21.2.1" etag="wBmgZLAiTpcc6VGglnp5" type="github">
  <diagram name="Page-1" id="ZmtqCoVPgbE1SNtVL5tk">
    <mxGraphModel>
      <root>
        <mxCell id="0" />
        <mxCell id="1" parent="0" />
      </root>
    </mxGraphModel>
  </diagram>
</mxfile>
